<?xml version="1.0" encoding="UTF-8" standalone="no"?>
<!DOCTYPE svg PUBLIC "-//W3C//DTD SVG 1.1//EN" "http://www.w3.org/Graphics/SVG/1.1/DTD/svg11.dtd">
<!-- Generated by graphviz version 2.40.1 (20161225.0304)
 -->
<!-- Title: %0 Pages: 1 -->
<svg width="1118pt" height="111pt" viewBox="0.00 0.00 1118.28 111.00" xmlns="http://www.w3.org/2000/svg" xmlns:xlink="http://www.w3.org/1999/xlink">
<g id="graph0" class="graph" transform="scale(1 1) rotate(0) translate(4 107)">
<title>%0</title>
<polygon fill="#ffffff" stroke="transparent" points="-4,4 -4,-107 1114.2774,-107 1114.2774,4 -4,4"/>
<!-- 0 -->
<g id="node1" class="node">
<title>0</title>
<path fill="#d3d3d3" stroke="#000000" d="M219.7157,-76C219.7157,-76 11.7611,-76 11.7611,-76 5.7611,-76 -.2389,-70 -.2389,-64 -.2389,-64 -.2389,-52 -.2389,-52 -.2389,-46 5.7611,-40 11.7611,-40 11.7611,-40 219.7157,-40 219.7157,-40 225.7157,-40 231.7157,-46 231.7157,-52 231.7157,-52 231.7157,-64 231.7157,-64 231.7157,-70 225.7157,-76 219.7157,-76"/>
<text text-anchor="middle" x="115.7384" y="-53.8" font-family="Arial" font-size="14.00" fill="#000000">Ant_0 - The Fragile Truckers_copy</text>
</g>
<!-- 1 -->
<g id="node2" class="node">
<title>1</title>
<path fill="#ffff00" stroke="#000000" d="M676.8322,-103C676.8322,-103 506.5742,-103 506.5742,-103 500.5742,-103 494.5742,-97 494.5742,-91 494.5742,-91 494.5742,-79 494.5742,-79 494.5742,-73 500.5742,-67 506.5742,-67 506.5742,-67 676.8322,-67 676.8322,-67 682.8322,-67 688.8322,-73 688.8322,-79 688.8322,-79 688.8322,-91 688.8322,-91 688.8322,-97 682.8322,-103 676.8322,-103"/>
<text text-anchor="middle" x="591.7032" y="-80.8" font-family="Arial" font-size="14.00" fill="#000000">Ant_0 - The Fragile Truckers</text>
</g>
<!-- 0&#45;&gt;1 -->
<g id="edge1" class="edge">
<title>0-&gt;1</title>
<path fill="none" stroke="#000000" d="M231.6388,-74.3747C237.6652,-74.9832 243.6386,-75.5317 249.4768,-76 327.9466,-82.2942 416.828,-84.4845 484.3419,-85.1326"/>
<polygon fill="#000000" stroke="#000000" points="484.5363,-88.6344 494.5661,-85.2206 484.5966,-81.6346 484.5363,-88.6344"/>
<text text-anchor="middle" x="353.7208" y="-88.2" font-family="Arial" font-size="14.00" fill="#000000">(Attack, Damage (0, 1), Phase: 1)</text>
</g>
<!-- 3 -->
<g id="node4" class="node">
<title>3</title>
<path fill="#d3d3d3" stroke="#000000" d="M695.6805,-36C695.6805,-36 487.7259,-36 487.7259,-36 481.7259,-36 475.7259,-30 475.7259,-24 475.7259,-24 475.7259,-12 475.7259,-12 475.7259,-6 481.7259,0 487.7259,0 487.7259,0 695.6805,0 695.6805,0 701.6805,0 707.6805,-6 707.6805,-12 707.6805,-12 707.6805,-24 707.6805,-24 707.6805,-30 701.6805,-36 695.6805,-36"/>
<text text-anchor="middle" x="591.7032" y="-13.8" font-family="Arial" font-size="14.00" fill="#000000">Ant_4 - The Fragile Truckers_copy</text>
</g>
<!-- 0&#45;&gt;3 -->
<g id="edge4" class="edge">
<title>0-&gt;3</title>
<path fill="none" stroke="#000000" d="M185.0588,-39.9358C205.651,-35.2819 228.3515,-30.8442 249.4768,-28.2 320.5782,-19.3005 400.6042,-16.5207 465.383,-16.0706"/>
<polygon fill="#000000" stroke="#000000" points="465.6631,-19.5693 475.6449,-16.0178 465.627,-12.5694 465.6631,-19.5693"/>
<text text-anchor="middle" x="353.7208" y="-33.2" font-family="Arial" font-size="14.00" fill="#000000">(Faint, Add (2, 1), Phase: 1)</text>
</g>
<!-- 1&#45;&gt;0 -->
<g id="edge2" class="edge">
<title>1-&gt;0</title>
<path fill="none" stroke="#000000" d="M524.1503,-66.9276C503.1088,-62.1163 479.7183,-57.5942 457.9648,-55.2 386.7679,-47.3639 306.7364,-47.5288 241.9785,-49.8969"/>
<polygon fill="#000000" stroke="#000000" points="241.5768,-46.4098 231.7201,-50.295 241.8483,-53.4045 241.5768,-46.4098"/>
<text text-anchor="middle" x="353.7208" y="-60.2" font-family="Arial" font-size="14.00" fill="#000000">(Attack, Damage (0, 1), Phase: 1)</text>
</g>
<!-- 2 -->
<g id="node3" class="node">
<title>2</title>
<path fill="#ffff00" stroke="#000000" d="M1098.3419,-103C1098.3419,-103 928.0839,-103 928.0839,-103 922.0839,-103 916.0839,-97 916.0839,-91 916.0839,-91 916.0839,-79 916.0839,-79 916.0839,-73 922.0839,-67 928.0839,-67 928.0839,-67 1098.3419,-67 1098.3419,-67 1104.3419,-67 1110.3419,-73 1110.3419,-79 1110.3419,-79 1110.3419,-91 1110.3419,-91 1110.3419,-97 1104.3419,-103 1098.3419,-103"/>
<text text-anchor="middle" x="1013.2129" y="-80.8" font-family="Arial" font-size="14.00" fill="#000000">Ant_3 - The Fragile Truckers</text>
</g>
<!-- 1&#45;&gt;2 -->
<g id="edge3" class="edge">
<title>1-&gt;2</title>
<path fill="none" stroke="#000000" d="M688.9353,-85C753.803,-85 839.1218,-85 905.963,-85"/>
<polygon fill="#000000" stroke="#000000" points="906.1055,-88.5001 916.1054,-85 906.1054,-81.5001 906.1055,-88.5001"/>
<text text-anchor="middle" x="811.795" y="-89.2" font-family="Arial" font-size="14.00" fill="#000000">(Faint, Add (2, 1), Phase: 1)</text>
</g>
</g>
</svg>
