<?xml version="1.0" encoding="UTF-8" standalone="no"?>
<!DOCTYPE svg PUBLIC "-//W3C//DTD SVG 1.1//EN" "http://www.w3.org/Graphics/SVG/1.1/DTD/svg11.dtd">
<!-- Generated by graphviz version 2.40.1 (20161225.0304)
 -->
<!-- Title: %0 Pages: 1 -->
<svg width="1171pt" height="523pt" viewBox="0.00 0.00 1171.29 522.90" xmlns="http://www.w3.org/2000/svg" xmlns:xlink="http://www.w3.org/1999/xlink">
<g id="graph0" class="graph" transform="scale(1 1) rotate(0) translate(4 518.9023)">
<title>%0</title>
<polygon fill="#ffffff" stroke="transparent" points="-4,4 -4,-518.9023 1167.2856,-518.9023 1167.2856,4 -4,4"/>
<!-- 0 -->
<g id="node1" class="node">
<title>0</title>
<path fill="#d3d3d3" stroke="#000000" d="M261.2681,-291.1023C261.2681,-291.1023 12.2437,-291.1023 12.2437,-291.1023 6.2437,-291.1023 .2437,-285.1023 .2437,-279.1023 .2437,-279.1023 .2437,-267.1023 .2437,-267.1023 .2437,-261.1023 6.2437,-255.1023 12.2437,-255.1023 12.2437,-255.1023 261.2681,-255.1023 261.2681,-255.1023 267.2681,-255.1023 273.2681,-261.1023 273.2681,-267.1023 273.2681,-267.1023 273.2681,-279.1023 273.2681,-279.1023 273.2681,-285.1023 267.2681,-291.1023 261.2681,-291.1023"/>
<text text-anchor="middle" x="136.7559" y="-268.9023" font-family="Arial" font-size="14.00" fill="#000000">Mammoth_0 - The Super Auto Pets_copy</text>
</g>
<!-- 1 -->
<g id="node2" class="node">
<title>1</title>
<path fill="#ffff00" stroke="#000000" d="M742.6456,-371.1023C742.6456,-371.1023 530.3174,-371.1023 530.3174,-371.1023 524.3174,-371.1023 518.3174,-365.1023 518.3174,-359.1023 518.3174,-359.1023 518.3174,-347.1023 518.3174,-347.1023 518.3174,-341.1023 524.3174,-335.1023 530.3174,-335.1023 530.3174,-335.1023 742.6456,-335.1023 742.6456,-335.1023 748.6456,-335.1023 754.6456,-341.1023 754.6456,-347.1023 754.6456,-347.1023 754.6456,-359.1023 754.6456,-359.1023 754.6456,-365.1023 748.6456,-371.1023 742.6456,-371.1023"/>
<text text-anchor="middle" x="636.4815" y="-348.9023" font-family="Arial" font-size="14.00" fill="#000000">Mammoth_0 - The Super Auto Pets</text>
</g>
<!-- 0&#45;&gt;1 -->
<g id="edge1" class="edge">
<title>0-&gt;1</title>
<path fill="none" stroke="#000000" d="M144.2013,-291.2708C162.2402,-332.5261 212.6889,-432.6672 291.5118,-471.1023 374.7992,-511.7144 413.163,-503.4365 499.9998,-471.1023 548.8913,-452.8973 591.9368,-408.4313 616.0472,-379.5824"/>
<polygon fill="#000000" stroke="#000000" points="619.0046,-381.4945 622.6211,-371.536 613.5838,-377.0656 619.0046,-381.4945"/>
<text text-anchor="middle" x="395.7558" y="-502.3023" font-family="Arial" font-size="14.00" fill="#000000">(Attack, Damage (0, 3), Phase: 1)</text>
</g>
<!-- 0&#45;&gt;1 -->
<g id="edge3" class="edge">
<title>0-&gt;1</title>
<path fill="none" stroke="#000000" d="M147.5071,-291.337C169.3765,-326.3859 222.8415,-402.24 291.5118,-431.1023 334.2232,-449.054 455.2216,-442.9952 499.9998,-431.1023 539.1015,-420.7171 578.6833,-396.2042 605.0776,-377.4079"/>
<polygon fill="#000000" stroke="#000000" points="607.4737,-379.9931 613.5033,-371.2814 603.357,-374.3315 607.4737,-379.9931"/>
<text text-anchor="middle" x="395.7558" y="-446.3023" font-family="Arial" font-size="14.00" fill="#000000">(Attack, Damage (0, 3), Phase: 2)</text>
</g>
<!-- 0&#45;&gt;1 -->
<g id="edge5" class="edge">
<title>0-&gt;1</title>
<path fill="none" stroke="#000000" d="M152.6175,-291.1332C178.4342,-318.9534 232.6132,-371.2091 291.5118,-391.1023 388.4217,-423.834 508.5053,-396.4431 578.4103,-374.2754"/>
<polygon fill="#000000" stroke="#000000" points="579.4998,-377.6016 587.9336,-371.1889 577.3416,-370.9426 579.4998,-377.6016"/>
<text text-anchor="middle" x="395.7558" y="-410.3023" font-family="Arial" font-size="14.00" fill="#000000">(Attack, Damage (0, 3), Phase: 3)</text>
</g>
<!-- 0&#45;&gt;1 -->
<g id="edge7" class="edge">
<title>0-&gt;1</title>
<path fill="none" stroke="#000000" d="M163.2222,-291.2571C192.9105,-310.4361 243.248,-339.4791 291.5118,-351.1023 361.8492,-368.0415 442.6178,-369.4398 508.3119,-366.1921"/>
<polygon fill="#000000" stroke="#000000" points="508.508,-369.6867 518.3064,-365.6567 508.1335,-362.6968 508.508,-369.6867"/>
<text text-anchor="middle" x="395.7558" y="-371.3023" font-family="Arial" font-size="14.00" fill="#000000">(Attack, Damage (0, 1), Phase: 4)</text>
</g>
<!-- 6 -->
<g id="node7" class="node">
<title>6</title>
<path fill="#d3d3d3" stroke="#000000" d="M742.9449,-205.1023C742.9449,-205.1023 530.0181,-205.1023 530.0181,-205.1023 524.0181,-205.1023 518.0181,-199.1023 518.0181,-193.1023 518.0181,-193.1023 518.0181,-181.1023 518.0181,-181.1023 518.0181,-175.1023 524.0181,-169.1023 530.0181,-169.1023 530.0181,-169.1023 742.9449,-169.1023 742.9449,-169.1023 748.9449,-169.1023 754.9449,-175.1023 754.9449,-181.1023 754.9449,-181.1023 754.9449,-193.1023 754.9449,-193.1023 754.9449,-199.1023 748.9449,-205.1023 742.9449,-205.1023"/>
<text text-anchor="middle" x="636.4815" y="-182.9023" font-family="Arial" font-size="14.00" fill="#000000">Dog_1 - The Super Auto Pets_copy</text>
</g>
<!-- 0&#45;&gt;6 -->
<g id="edge13" class="edge">
<title>0-&gt;6</title>
<path fill="none" stroke="#000000" d="M156.9074,-254.9764C184.7833,-231.2501 237.7804,-190.8575 291.5118,-175.3023 371.8872,-152.0337 467.213,-157.659 537.2679,-167.5808"/>
<polygon fill="#000000" stroke="#000000" points="537.0129,-171.0809 547.4157,-169.073 538.0313,-164.1554 537.0129,-171.0809"/>
<text text-anchor="middle" x="395.7558" y="-179.3023" font-family="Arial" font-size="14.00" fill="#000000">(Faint, Add (2, 2), Phase: 4)</text>
</g>
<!-- 7 -->
<g id="node8" class="node">
<title>7</title>
<path fill="#d3d3d3" stroke="#000000" d="M742.9449,-151.1023C742.9449,-151.1023 530.0181,-151.1023 530.0181,-151.1023 524.0181,-151.1023 518.0181,-145.1023 518.0181,-139.1023 518.0181,-139.1023 518.0181,-127.1023 518.0181,-127.1023 518.0181,-121.1023 524.0181,-115.1023 530.0181,-115.1023 530.0181,-115.1023 742.9449,-115.1023 742.9449,-115.1023 748.9449,-115.1023 754.9449,-121.1023 754.9449,-127.1023 754.9449,-127.1023 754.9449,-139.1023 754.9449,-139.1023 754.9449,-145.1023 748.9449,-151.1023 742.9449,-151.1023"/>
<text text-anchor="middle" x="636.4815" y="-128.9023" font-family="Arial" font-size="14.00" fill="#000000">Dog_2 - The Super Auto Pets_copy</text>
</g>
<!-- 0&#45;&gt;7 -->
<g id="edge14" class="edge">
<title>0-&gt;7</title>
<path fill="none" stroke="#000000" d="M150.0462,-255.0368C174.1432,-223.984 228.4336,-161.4936 291.5118,-137.3023 361.3273,-110.5272 445.0886,-108.8677 512.5911,-114.1954"/>
<polygon fill="#000000" stroke="#000000" points="512.5933,-117.7081 522.8541,-115.0687 513.1869,-110.7333 512.5933,-117.7081"/>
<text text-anchor="middle" x="395.7558" y="-141.3023" font-family="Arial" font-size="14.00" fill="#000000">(Faint, Add (2, 2), Phase: 4)</text>
</g>
<!-- 8 -->
<g id="node9" class="node">
<title>8</title>
<path fill="#d3d3d3" stroke="#000000" d="M742.9449,-97.1023C742.9449,-97.1023 530.0181,-97.1023 530.0181,-97.1023 524.0181,-97.1023 518.0181,-91.1023 518.0181,-85.1023 518.0181,-85.1023 518.0181,-73.1023 518.0181,-73.1023 518.0181,-67.1023 524.0181,-61.1023 530.0181,-61.1023 530.0181,-61.1023 742.9449,-61.1023 742.9449,-61.1023 748.9449,-61.1023 754.9449,-67.1023 754.9449,-73.1023 754.9449,-73.1023 754.9449,-85.1023 754.9449,-85.1023 754.9449,-91.1023 748.9449,-97.1023 742.9449,-97.1023"/>
<text text-anchor="middle" x="636.4815" y="-74.9023" font-family="Arial" font-size="14.00" fill="#000000">Dog_3 - The Super Auto Pets_copy</text>
</g>
<!-- 0&#45;&gt;8 -->
<g id="edge15" class="edge">
<title>0-&gt;8</title>
<path fill="none" stroke="#000000" d="M145.4242,-255.0165C165.0867,-216.3475 217.2026,-126.2318 291.5118,-90.3023 362.3404,-56.0557 451.2552,-53.9909 521.0747,-60.1059"/>
<polygon fill="#000000" stroke="#000000" points="520.9483,-63.6094 531.2329,-61.0646 521.6061,-56.6404 520.9483,-63.6094"/>
<text text-anchor="middle" x="395.7558" y="-94.3023" font-family="Arial" font-size="14.00" fill="#000000">(Faint, Add (2, 2), Phase: 4)</text>
</g>
<!-- 9 -->
<g id="node10" class="node">
<title>9</title>
<path fill="#d3d3d3" stroke="#000000" d="M742.9449,-43.1023C742.9449,-43.1023 530.0181,-43.1023 530.0181,-43.1023 524.0181,-43.1023 518.0181,-37.1023 518.0181,-31.1023 518.0181,-31.1023 518.0181,-19.1023 518.0181,-19.1023 518.0181,-13.1023 524.0181,-7.1023 530.0181,-7.1023 530.0181,-7.1023 742.9449,-7.1023 742.9449,-7.1023 748.9449,-7.1023 754.9449,-13.1023 754.9449,-19.1023 754.9449,-19.1023 754.9449,-31.1023 754.9449,-31.1023 754.9449,-37.1023 748.9449,-43.1023 742.9449,-43.1023"/>
<text text-anchor="middle" x="636.4815" y="-20.9023" font-family="Arial" font-size="14.00" fill="#000000">Dog_4 - The Super Auto Pets_copy</text>
</g>
<!-- 0&#45;&gt;9 -->
<g id="edge16" class="edge">
<title>0-&gt;9</title>
<path fill="none" stroke="#000000" d="M142.2094,-254.9571C157.1936,-208.7212 203.8224,-86.6608 291.5118,-37.3023 366.5772,4.9504 466.1026,3.6011 538.9551,-5.7075"/>
<polygon fill="#000000" stroke="#000000" points="538.6743,-9.2012 549.0525,-7.0701 539.6105,-2.2641 538.6743,-9.2012"/>
<text text-anchor="middle" x="395.7558" y="-42.3023" font-family="Arial" font-size="14.00" fill="#000000">(Faint, Add (2, 2), Phase: 4)</text>
</g>
<!-- 1&#45;&gt;0 -->
<g id="edge2" class="edge">
<title>1-&gt;0</title>
<path fill="none" stroke="#000000" d="M518.1447,-336.6096C512.0101,-335.8147 505.9336,-335.041 499.9998,-334.3023 407.4807,-322.7845 383.308,-327.4087 291.5118,-311.1023 265.4208,-306.4676 237.1891,-299.9813 212.0711,-293.6778"/>
<polygon fill="#000000" stroke="#000000" points="212.7992,-290.2517 202.2453,-291.182 211.0758,-297.0362 212.7992,-290.2517"/>
<text text-anchor="middle" x="395.7558" y="-338.3023" font-family="Arial" font-size="14.00" fill="#000000">(Attack, Damage (0, 3), Phase: 1)</text>
</g>
<!-- 1&#45;&gt;0 -->
<g id="edge4" class="edge">
<title>1-&gt;0</title>
<path fill="none" stroke="#000000" d="M606.2785,-335.0824C579.4094,-320.0763 538.516,-299.6986 499.9998,-290.3023 459.8883,-280.5169 365.9444,-276.2407 283.6464,-274.3986"/>
<polygon fill="#000000" stroke="#000000" points="283.4865,-270.8945 273.4142,-274.1806 283.3373,-277.8929 283.4865,-270.8945"/>
<text text-anchor="middle" x="395.7558" y="-294.3023" font-family="Arial" font-size="14.00" fill="#000000">(Attack, Damage (0, 3), Phase: 2)</text>
</g>
<!-- 1&#45;&gt;0 -->
<g id="edge6" class="edge">
<title>1-&gt;0</title>
<path fill="none" stroke="#000000" d="M619.6215,-335.0646C595.7259,-310.9668 549.3884,-269.4333 499.9998,-253.3023 405.3409,-222.3854 289.492,-237.0629 214.4625,-252.8993"/>
<polygon fill="#000000" stroke="#000000" points="213.6404,-249.4962 204.6089,-255.0354 215.1235,-256.3373 213.6404,-249.4962"/>
<text text-anchor="middle" x="395.7558" y="-257.3023" font-family="Arial" font-size="14.00" fill="#000000">(Attack, Damage (0, 3), Phase: 3)</text>
</g>
<!-- 1&#45;&gt;0 -->
<g id="edge8" class="edge">
<title>1-&gt;0</title>
<path fill="none" stroke="#000000" d="M625.594,-334.8819C605.4698,-303.2192 559.0631,-239.059 499.9998,-214.3023 391.9594,-169.0166 252.3198,-218.7782 181.7859,-250.6566"/>
<polygon fill="#000000" stroke="#000000" points="179.9212,-247.662 172.3024,-255.0244 182.8495,-254.0201 179.9212,-247.662"/>
<text text-anchor="middle" x="395.7558" y="-218.3023" font-family="Arial" font-size="14.00" fill="#000000">(Attack, Damage (0, 1), Phase: 4)</text>
</g>
<!-- 2 -->
<g id="node3" class="node">
<title>2</title>
<path fill="#ffff00" stroke="#000000" d="M1151.0938,-452.1023C1151.0938,-452.1023 975.8618,-452.1023 975.8618,-452.1023 969.8618,-452.1023 963.8618,-446.1023 963.8618,-440.1023 963.8618,-440.1023 963.8618,-428.1023 963.8618,-428.1023 963.8618,-422.1023 969.8618,-416.1023 975.8618,-416.1023 975.8618,-416.1023 1151.0938,-416.1023 1151.0938,-416.1023 1157.0938,-416.1023 1163.0938,-422.1023 1163.0938,-428.1023 1163.0938,-428.1023 1163.0938,-440.1023 1163.0938,-440.1023 1163.0938,-446.1023 1157.0938,-452.1023 1151.0938,-452.1023"/>
<text text-anchor="middle" x="1063.4778" y="-429.9023" font-family="Arial" font-size="14.00" fill="#000000">Dog_1 - The Super Auto Pets</text>
</g>
<!-- 1&#45;&gt;2 -->
<g id="edge9" class="edge">
<title>1-&gt;2</title>
<path fill="none" stroke="#000000" d="M691.4624,-371.1911C716.1659,-378.8051 745.811,-387.2398 772.9632,-393.1023 832.1387,-405.8791 898.9865,-415.6295 953.6276,-422.4097"/>
<polygon fill="#000000" stroke="#000000" points="953.3324,-425.8996 963.6837,-423.6412 954.1833,-418.9515 953.3324,-425.8996"/>
<text text-anchor="middle" x="859.3166" y="-425.3023" font-family="Arial" font-size="14.00" fill="#000000">(Faint, Add (2, 2), Phase: 4)</text>
</g>
<!-- 3 -->
<g id="node4" class="node">
<title>3</title>
<path fill="#ffff00" stroke="#000000" d="M1151.0938,-398.1023C1151.0938,-398.1023 975.8618,-398.1023 975.8618,-398.1023 969.8618,-398.1023 963.8618,-392.1023 963.8618,-386.1023 963.8618,-386.1023 963.8618,-374.1023 963.8618,-374.1023 963.8618,-368.1023 969.8618,-362.1023 975.8618,-362.1023 975.8618,-362.1023 1151.0938,-362.1023 1151.0938,-362.1023 1157.0938,-362.1023 1163.0938,-368.1023 1163.0938,-374.1023 1163.0938,-374.1023 1163.0938,-386.1023 1163.0938,-386.1023 1163.0938,-392.1023 1157.0938,-398.1023 1151.0938,-398.1023"/>
<text text-anchor="middle" x="1063.4778" y="-375.9023" font-family="Arial" font-size="14.00" fill="#000000">Dog_2 - The Super Auto Pets</text>
</g>
<!-- 1&#45;&gt;3 -->
<g id="edge10" class="edge">
<title>1-&gt;3</title>
<path fill="none" stroke="#000000" d="M754.5735,-360.5696C816.7684,-364.5023 892.5623,-369.2949 953.5066,-373.1486"/>
<polygon fill="#000000" stroke="#000000" points="953.341,-376.645 963.542,-373.7831 953.7828,-369.659 953.341,-376.645"/>
<text text-anchor="middle" x="859.3166" y="-376.3023" font-family="Arial" font-size="14.00" fill="#000000">(Faint, Add (2, 2), Phase: 4)</text>
</g>
<!-- 4 -->
<g id="node5" class="node">
<title>4</title>
<path fill="#ffff00" stroke="#000000" d="M1151.0938,-344.1023C1151.0938,-344.1023 975.8618,-344.1023 975.8618,-344.1023 969.8618,-344.1023 963.8618,-338.1023 963.8618,-332.1023 963.8618,-332.1023 963.8618,-320.1023 963.8618,-320.1023 963.8618,-314.1023 969.8618,-308.1023 975.8618,-308.1023 975.8618,-308.1023 1151.0938,-308.1023 1151.0938,-308.1023 1157.0938,-308.1023 1163.0938,-314.1023 1163.0938,-320.1023 1163.0938,-320.1023 1163.0938,-332.1023 1163.0938,-332.1023 1163.0938,-338.1023 1157.0938,-344.1023 1151.0938,-344.1023"/>
<text text-anchor="middle" x="1063.4778" y="-321.9023" font-family="Arial" font-size="14.00" fill="#000000">Dog_3 - The Super Auto Pets</text>
</g>
<!-- 1&#45;&gt;4 -->
<g id="edge11" class="edge">
<title>1-&gt;4</title>
<path fill="none" stroke="#000000" d="M754.8163,-341.6782C760.9515,-341.188 767.0286,-340.7254 772.9632,-340.3023 832.5909,-336.0511 899.1952,-332.6951 953.573,-330.3155"/>
<polygon fill="#000000" stroke="#000000" points="953.7405,-333.8116 963.5798,-329.8825 953.4378,-326.8181 953.7405,-333.8116"/>
<text text-anchor="middle" x="859.3166" y="-344.3023" font-family="Arial" font-size="14.00" fill="#000000">(Faint, Add (2, 2), Phase: 4)</text>
</g>
<!-- 5 -->
<g id="node6" class="node">
<title>5</title>
<path fill="#ffff00" stroke="#000000" d="M1151.0938,-290.1023C1151.0938,-290.1023 975.8618,-290.1023 975.8618,-290.1023 969.8618,-290.1023 963.8618,-284.1023 963.8618,-278.1023 963.8618,-278.1023 963.8618,-266.1023 963.8618,-266.1023 963.8618,-260.1023 969.8618,-254.1023 975.8618,-254.1023 975.8618,-254.1023 1151.0938,-254.1023 1151.0938,-254.1023 1157.0938,-254.1023 1163.0938,-260.1023 1163.0938,-266.1023 1163.0938,-266.1023 1163.0938,-278.1023 1163.0938,-278.1023 1163.0938,-284.1023 1157.0938,-290.1023 1151.0938,-290.1023"/>
<text text-anchor="middle" x="1063.4778" y="-267.9023" font-family="Arial" font-size="14.00" fill="#000000">Dog_4 - The Super Auto Pets</text>
</g>
<!-- 1&#45;&gt;5 -->
<g id="edge12" class="edge">
<title>1-&gt;5</title>
<path fill="none" stroke="#000000" d="M685.1583,-335.0838C710.9425,-326.1531 743.3283,-315.8965 772.9632,-309.3023 831.955,-296.1758 898.7897,-287.2195 953.4694,-281.3905"/>
<polygon fill="#000000" stroke="#000000" points="953.9515,-284.8593 963.5333,-280.3382 953.2235,-277.8972 953.9515,-284.8593"/>
<text text-anchor="middle" x="859.3166" y="-313.3023" font-family="Arial" font-size="14.00" fill="#000000">(Faint, Add (2, 2), Phase: 4)</text>
</g>
</g>
</svg>
