<?xml version="1.0" encoding="UTF-8" standalone="no"?>
<!DOCTYPE svg PUBLIC "-//W3C//DTD SVG 1.1//EN" "http://www.w3.org/Graphics/SVG/1.1/DTD/svg11.dtd">
<!-- Generated by graphviz version 2.40.1 (20161225.0304)
 -->
<!-- Title: %0 Pages: 1 -->
<svg width="2958pt" height="585pt" viewBox="0.00 0.00 2958.30 584.74" xmlns="http://www.w3.org/2000/svg" xmlns:xlink="http://www.w3.org/1999/xlink">
<g id="graph0" class="graph" transform="scale(1 1) rotate(0) translate(4 580.7434)">
<title>%0</title>
<polygon fill="#ffffff" stroke="transparent" points="-4,4 -4,-580.7434 2954.2978,-580.7434 2954.2978,4 -4,4"/>
<!-- 0 -->
<g id="node1" class="node">
<title>0</title>
<path fill="#d3d3d3" stroke="#000000" d="M172.7076,-346.2756C172.7076,-346.2756 12.0974,-346.2756 12.0974,-346.2756 6.0974,-346.2756 .0974,-340.2756 .0974,-334.2756 .0974,-334.2756 .0974,-322.2756 .0974,-322.2756 .0974,-316.2756 6.0974,-310.2756 12.0974,-310.2756 12.0974,-310.2756 172.7076,-310.2756 172.7076,-310.2756 178.7076,-310.2756 184.7076,-316.2756 184.7076,-322.2756 184.7076,-322.2756 184.7076,-334.2756 184.7076,-334.2756 184.7076,-340.2756 178.7076,-346.2756 172.7076,-346.2756"/>
<text text-anchor="middle" x="92.4025" y="-324.0756" font-family="Arial" font-size="14.00" fill="#000000">Rhino_0 - The Sour Sailors</text>
</g>
<!-- 1 -->
<g id="node2" class="node">
<title>1</title>
<path fill="#ffff00" stroke="#000000" d="M644.1815,-533.2756C644.1815,-533.2756 490.5881,-533.2756 490.5881,-533.2756 484.5881,-533.2756 478.5881,-527.2756 478.5881,-521.2756 478.5881,-521.2756 478.5881,-509.2756 478.5881,-509.2756 478.5881,-503.2756 484.5881,-497.2756 490.5881,-497.2756 490.5881,-497.2756 644.1815,-497.2756 644.1815,-497.2756 650.1815,-497.2756 656.1815,-503.2756 656.1815,-509.2756 656.1815,-509.2756 656.1815,-521.2756 656.1815,-521.2756 656.1815,-527.2756 650.1815,-533.2756 644.1815,-533.2756"/>
<text text-anchor="middle" x="567.3848" y="-511.0756" font-family="Arial" font-size="14.00" fill="#000000">Deer_0 - The Chunk Wigs</text>
</g>
<!-- 0&#45;&gt;1 -->
<g id="edge1" class="edge">
<title>0-&gt;1</title>
<path fill="none" stroke="#000000" d="M96.8534,-346.5077C107.4698,-385.5016 138.3422,-476.4419 202.805,-513.2756 246.374,-538.1707 375.8285,-532.9949 468.067,-525.4478"/>
<polygon fill="#000000" stroke="#000000" points="468.6049,-528.915 478.277,-524.5905 468.0192,-521.9396 468.6049,-528.915"/>
<text text-anchor="middle" x="318.3316" y="-535.4756" font-family="Arial" font-size="14.00" fill="#000000">(Attack, Damage (0, 9), Phase: 1)</text>
</g>
<!-- 2 -->
<g id="node3" class="node">
<title>2</title>
<path fill="#ffff00" stroke="#000000" d="M650.896,-373.2756C650.896,-373.2756 483.8736,-373.2756 483.8736,-373.2756 477.8736,-373.2756 471.8736,-367.2756 471.8736,-361.2756 471.8736,-361.2756 471.8736,-349.2756 471.8736,-349.2756 471.8736,-343.2756 477.8736,-337.2756 483.8736,-337.2756 483.8736,-337.2756 650.896,-337.2756 650.896,-337.2756 656.896,-337.2756 662.896,-343.2756 662.896,-349.2756 662.896,-349.2756 662.896,-361.2756 662.896,-361.2756 662.896,-367.2756 656.896,-373.2756 650.896,-373.2756"/>
<text text-anchor="middle" x="567.3848" y="-351.0756" font-family="Arial" font-size="14.00" fill="#000000">Cricket_1 - The Chunk Wigs</text>
</g>
<!-- 0&#45;&gt;2 -->
<g id="edge3" class="edge">
<title>0-&gt;2</title>
<path fill="none" stroke="#000000" d="M184.8291,-333.5295C264.1056,-338.0359 378.339,-344.5294 461.3229,-349.2466"/>
<polygon fill="#000000" stroke="#000000" points="461.356,-352.754 471.5386,-349.8273 461.7534,-345.7653 461.356,-352.754"/>
<text text-anchor="middle" x="318.3316" y="-351.4756" font-family="Arial" font-size="14.00" fill="#000000">(KnockOut, Damage (0, 7), Phase: 1)</text>
</g>
<!-- 3 -->
<g id="node4" class="node">
<title>3</title>
<path fill="#ffff00" stroke="#000000" d="M649.316,-213.2756C649.316,-213.2756 485.4536,-213.2756 485.4536,-213.2756 479.4536,-213.2756 473.4536,-207.2756 473.4536,-201.2756 473.4536,-201.2756 473.4536,-189.2756 473.4536,-189.2756 473.4536,-183.2756 479.4536,-177.2756 485.4536,-177.2756 485.4536,-177.2756 649.316,-177.2756 649.316,-177.2756 655.316,-177.2756 661.316,-183.2756 661.316,-189.2756 661.316,-189.2756 661.316,-201.2756 661.316,-201.2756 661.316,-207.2756 655.316,-213.2756 649.316,-213.2756"/>
<text text-anchor="middle" x="567.3848" y="-191.0756" font-family="Arial" font-size="14.00" fill="#000000">Sheep_2 - The Chunk Wigs</text>
</g>
<!-- 0&#45;&gt;3 -->
<g id="edge4" class="edge">
<title>0-&gt;3</title>
<path fill="none" stroke="#000000" d="M104.085,-310.2724C121.8804,-284.6215 158.4373,-238.4545 202.805,-218.4756 284.7163,-181.5907 387.5934,-178.4194 463.1614,-182.9466"/>
<polygon fill="#000000" stroke="#000000" points="462.9634,-186.4411 473.1704,-183.6006 463.4199,-179.4559 462.9634,-186.4411"/>
<text text-anchor="middle" x="318.3316" y="-222.4756" font-family="Arial" font-size="14.00" fill="#000000">(KnockOut, Damage (0, 4), Phase: 1)</text>
</g>
<!-- 4 -->
<g id="node5" class="node">
<title>4</title>
<path fill="#ffff00" stroke="#000000" d="M650.6276,-106.2756C650.6276,-106.2756 484.142,-106.2756 484.142,-106.2756 478.142,-106.2756 472.142,-100.2756 472.142,-94.2756 472.142,-94.2756 472.142,-82.2756 472.142,-82.2756 472.142,-76.2756 478.142,-70.2756 484.142,-70.2756 484.142,-70.2756 650.6276,-70.2756 650.6276,-70.2756 656.6276,-70.2756 662.6276,-76.2756 662.6276,-82.2756 662.6276,-82.2756 662.6276,-94.2756 662.6276,-94.2756 662.6276,-100.2756 656.6276,-106.2756 650.6276,-106.2756"/>
<text text-anchor="middle" x="567.3848" y="-84.0756" font-family="Arial" font-size="14.00" fill="#000000">Turkey_3 - The Chunk Wigs</text>
</g>
<!-- 0&#45;&gt;4 -->
<g id="edge5" class="edge">
<title>0-&gt;4</title>
<path fill="none" stroke="#000000" d="M95.4887,-309.9845C103.8548,-266.7702 131.3387,-158.4686 202.805,-111.4756 279.3861,-61.1193 385.684,-60.2223 463.7452,-68.9916"/>
<polygon fill="#000000" stroke="#000000" points="463.7387,-72.5156 474.0835,-70.2276 464.5697,-65.5651 463.7387,-72.5156"/>
<text text-anchor="middle" x="318.3316" y="-116.4756" font-family="Arial" font-size="14.00" fill="#000000">(KnockOut, Damage (0, 6), Phase: 1)</text>
</g>
<!-- 5 -->
<g id="node6" class="node">
<title>5</title>
<path fill="#ffff00" stroke="#000000" d="M647.4114,-52.2756C647.4114,-52.2756 487.3582,-52.2756 487.3582,-52.2756 481.3582,-52.2756 475.3582,-46.2756 475.3582,-40.2756 475.3582,-40.2756 475.3582,-28.2756 475.3582,-28.2756 475.3582,-22.2756 481.3582,-16.2756 487.3582,-16.2756 487.3582,-16.2756 647.4114,-16.2756 647.4114,-16.2756 653.4114,-16.2756 659.4114,-22.2756 659.4114,-28.2756 659.4114,-28.2756 659.4114,-40.2756 659.4114,-40.2756 659.4114,-46.2756 653.4114,-52.2756 647.4114,-52.2756"/>
<text text-anchor="middle" x="567.3848" y="-30.0756" font-family="Arial" font-size="14.00" fill="#000000">Shark_4 - The Chunk Wigs</text>
</g>
<!-- 0&#45;&gt;5 -->
<g id="edge6" class="edge">
<title>0-&gt;5</title>
<path fill="none" stroke="#000000" d="M96.7063,-310.0951C110.6995,-252.6613 156.673,-76.9855 202.805,-44.4756 287.6823,15.3386 413.4184,2.7077 492.8394,-14.0995"/>
<polygon fill="#000000" stroke="#000000" points="492.2517,-17.5537 502.7689,-16.2736 493.749,-10.7157 492.2517,-17.5537"/>
<text text-anchor="middle" x="318.3316" y="-49.4756" font-family="Arial" font-size="14.00" fill="#000000">(KnockOut, Damage (0, 6), Phase: 1)</text>
</g>
<!-- 6 -->
<g id="node7" class="node">
<title>6</title>
<path fill="#ffff00" stroke="#000000" d="M2414.6694,-533.2756C2414.6694,-533.2756 2267.5016,-533.2756 2267.5016,-533.2756 2261.5016,-533.2756 2255.5016,-527.2756 2255.5016,-521.2756 2255.5016,-521.2756 2255.5016,-509.2756 2255.5016,-509.2756 2255.5016,-503.2756 2261.5016,-497.2756 2267.5016,-497.2756 2267.5016,-497.2756 2414.6694,-497.2756 2414.6694,-497.2756 2420.6694,-497.2756 2426.6694,-503.2756 2426.6694,-509.2756 2426.6694,-509.2756 2426.6694,-521.2756 2426.6694,-521.2756 2426.6694,-527.2756 2420.6694,-533.2756 2414.6694,-533.2756"/>
<text text-anchor="middle" x="2341.0855" y="-511.0756" font-family="Arial" font-size="14.00" fill="#000000">Bus_6 - The Chunk Wigs</text>
</g>
<!-- 0&#45;&gt;6 -->
<g id="edge13" class="edge">
<title>0-&gt;6</title>
<path fill="none" stroke="#000000" d="M94.9213,-346.4653C102.1877,-391.056 127.7019,-505.5619 202.805,-552.2756 290.0038,-606.5128 331.1689,-552.7401 433.8582,-552.2756 1219.8568,-548.72 1418.7836,-598.7841 2202.3008,-536.2756 2216.314,-535.1576 2231.0591,-533.4772 2245.4945,-531.5445"/>
<polygon fill="#000000" stroke="#000000" points="2246.0003,-535.0079 2255.4261,-530.1699 2245.0406,-528.074 2246.0003,-535.0079"/>
<text text-anchor="middle" x="567.3848" y="-556.4756" font-family="Arial" font-size="14.00" fill="#000000">(Attack, Damage (0, 10), Phase: 2)</text>
</g>
<!-- 7 -->
<g id="node8" class="node">
<title>7</title>
<path fill="#ffff00" stroke="#000000" d="M2449.6553,-410.2756C2449.6553,-410.2756 2232.5157,-410.2756 2232.5157,-410.2756 2226.5157,-410.2756 2220.5157,-404.2756 2220.5157,-398.2756 2220.5157,-398.2756 2220.5157,-386.2756 2220.5157,-386.2756 2220.5157,-380.2756 2226.5157,-374.2756 2232.5157,-374.2756 2232.5157,-374.2756 2449.6553,-374.2756 2449.6553,-374.2756 2455.6553,-374.2756 2461.6553,-380.2756 2461.6553,-386.2756 2461.6553,-386.2756 2461.6553,-398.2756 2461.6553,-398.2756 2461.6553,-404.2756 2455.6553,-410.2756 2449.6553,-410.2756"/>
<text text-anchor="middle" x="2341.0855" y="-388.0756" font-family="Arial" font-size="14.00" fill="#000000">Zombie Cricket_7 - The Chunk Wigs</text>
</g>
<!-- 0&#45;&gt;7 -->
<g id="edge16" class="edge">
<title>0-&gt;7</title>
<path fill="none" stroke="#000000" d="M133.2549,-346.3059C153.7255,-354.5015 179.1378,-363.4318 202.805,-368.2756 311.4186,-390.505 341.1557,-376.275 451.8582,-382.2756 562.5367,-388.2749 590.1081,-392.3857 700.9114,-395.2756 1367.9687,-412.6732 1535.0556,-402.4864 2202.3008,-395.2756 2204.8839,-395.2477 2207.494,-395.2168 2210.1243,-395.1834"/>
<polygon fill="#000000" stroke="#000000" points="2210.4048,-398.6799 2220.3555,-395.0419 2210.308,-391.6806 2210.4048,-398.6799"/>
<text text-anchor="middle" x="567.3848" y="-398.4756" font-family="Arial" font-size="14.00" fill="#000000">(KnockOut, Damage (0, 3), Phase: 2)</text>
</g>
<!-- 8 -->
<g id="node9" class="node">
<title>8</title>
<path fill="#ffff00" stroke="#000000" d="M2417.5995,-246.2756C2417.5995,-246.2756 2264.5715,-246.2756 2264.5715,-246.2756 2258.5715,-246.2756 2252.5715,-240.2756 2252.5715,-234.2756 2252.5715,-234.2756 2252.5715,-222.2756 2252.5715,-222.2756 2252.5715,-216.2756 2258.5715,-210.2756 2264.5715,-210.2756 2264.5715,-210.2756 2417.5995,-210.2756 2417.5995,-210.2756 2423.5995,-210.2756 2429.5995,-216.2756 2429.5995,-222.2756 2429.5995,-222.2756 2429.5995,-234.2756 2429.5995,-234.2756 2429.5995,-240.2756 2423.5995,-246.2756 2417.5995,-246.2756"/>
<text text-anchor="middle" x="2341.0855" y="-224.0756" font-family="Arial" font-size="14.00" fill="#000000">Ram_8 - The Chunk Wigs</text>
</g>
<!-- 0&#45;&gt;8 -->
<g id="edge18" class="edge">
<title>0-&gt;8</title>
<path fill="none" stroke="#000000" d="M182.3394,-310.2716C189.2495,-309.1631 196.1303,-308.1459 202.805,-307.2756 312.8462,-292.9273 341.0307,-295.1495 451.8582,-289.4756 1229.1875,-249.6793 1424.5972,-266.9257 2202.3008,-235.2756 2215.1707,-234.7518 2228.709,-234.1421 2242.0771,-233.5049"/>
<polygon fill="#000000" stroke="#000000" points="2242.4333,-236.9919 2252.2527,-233.0134 2242.0954,-230.0001 2242.4333,-236.9919"/>
<text text-anchor="middle" x="567.3848" y="-293.4756" font-family="Arial" font-size="14.00" fill="#000000">(KnockOut, Damage (0, 4), Phase: 2)</text>
</g>
<!-- 9 -->
<g id="node10" class="node">
<title>9</title>
<path fill="#ffff00" stroke="#000000" d="M2417.5995,-182.2756C2417.5995,-182.2756 2264.5715,-182.2756 2264.5715,-182.2756 2258.5715,-182.2756 2252.5715,-176.2756 2252.5715,-170.2756 2252.5715,-170.2756 2252.5715,-158.2756 2252.5715,-158.2756 2252.5715,-152.2756 2258.5715,-146.2756 2264.5715,-146.2756 2264.5715,-146.2756 2417.5995,-146.2756 2417.5995,-146.2756 2423.5995,-146.2756 2429.5995,-152.2756 2429.5995,-158.2756 2429.5995,-158.2756 2429.5995,-170.2756 2429.5995,-170.2756 2429.5995,-176.2756 2423.5995,-182.2756 2417.5995,-182.2756"/>
<text text-anchor="middle" x="2341.0855" y="-160.0756" font-family="Arial" font-size="14.00" fill="#000000">Ram_9 - The Chunk Wigs</text>
</g>
<!-- 0&#45;&gt;9 -->
<g id="edge17" class="edge">
<title>0-&gt;9</title>
<path fill="none" stroke="#000000" d="M99.6261,-310.2478C113.8522,-277.379 148.8776,-208.2491 202.805,-177.2756 299.3035,-121.8512 340.7237,-157.2166 451.8582,-151.4756 1136.1941,-116.1242 1961.7959,-146.9972 2242.3271,-159.5488"/>
<polygon fill="#000000" stroke="#000000" points="2242.3291,-163.0524 2252.4764,-160.0056 2242.6439,-156.0594 2242.3291,-163.0524"/>
<text text-anchor="middle" x="567.3848" y="-156.4756" font-family="Arial" font-size="14.00" fill="#000000">(KnockOut, Damage (0, 4), Phase: 2)</text>
</g>
<!-- 10 -->
<g id="node11" class="node">
<title>10</title>
<path fill="#ffff00" stroke="#000000" d="M2419.2342,-337.2756C2419.2342,-337.2756 2262.9368,-337.2756 2262.9368,-337.2756 2256.9368,-337.2756 2250.9368,-331.2756 2250.9368,-325.2756 2250.9368,-325.2756 2250.9368,-313.2756 2250.9368,-313.2756 2250.9368,-307.2756 2256.9368,-301.2756 2262.9368,-301.2756 2262.9368,-301.2756 2419.2342,-301.2756 2419.2342,-301.2756 2425.2342,-301.2756 2431.2342,-307.2756 2431.2342,-313.2756 2431.2342,-313.2756 2431.2342,-325.2756 2431.2342,-325.2756 2431.2342,-331.2756 2425.2342,-337.2756 2419.2342,-337.2756"/>
<text text-anchor="middle" x="2341.0855" y="-315.0756" font-family="Arial" font-size="14.00" fill="#000000">Bee_10 - The Chunk Wigs</text>
</g>
<!-- 0&#45;&gt;10 -->
<g id="edge15" class="edge">
<title>0-&gt;10</title>
<path fill="none" stroke="#000000" d="M184.7084,-322.7738C257.2923,-318.7348 360.9839,-313.5981 451.8582,-311.4756 554.5205,-309.0778 580.2212,-311.3134 682.9114,-311.4756 1358.1981,-312.5423 1527.0651,-307.9117 2202.3008,-316.2756 2214.6606,-316.4287 2227.6386,-316.6409 2240.491,-316.8823"/>
<polygon fill="#000000" stroke="#000000" points="2240.6911,-320.3867 2250.7572,-317.0816 2240.8271,-313.3881 2240.6911,-320.3867"/>
<text text-anchor="middle" x="567.3848" y="-315.4756" font-family="Arial" font-size="14.00" fill="#000000">(KnockOut, Damage (0, 1), Phase: 2)</text>
</g>
<!-- 1&#45;&gt;0 -->
<g id="edge2" class="edge">
<title>1-&gt;0</title>
<path fill="none" stroke="#000000" d="M478.4815,-498.9969C463.6138,-496.5903 448.3233,-494.3081 433.8582,-492.4756 382.7446,-486.0002 247.9835,-498.0433 202.805,-473.2756 154.8269,-446.9731 121.2902,-390.0408 104.5772,-355.862"/>
<polygon fill="#000000" stroke="#000000" points="107.5661,-353.9959 100.1219,-346.4569 101.2399,-356.9926 107.5661,-353.9959"/>
<text text-anchor="middle" x="318.3316" y="-496.4756" font-family="Arial" font-size="14.00" fill="#000000">(Attack, Damage (0, 9), Phase: 1)</text>
</g>
<!-- 1&#45;&gt;6 -->
<g id="edge7" class="edge">
<title>1-&gt;6</title>
<path fill="none" stroke="#000000" d="M656.2539,-515.2756C956.8193,-515.2756 1933.8874,-515.2756 2245.0044,-515.2756"/>
<polygon fill="#000000" stroke="#000000" points="2245.3458,-518.7757 2255.3457,-515.2756 2245.3457,-511.7757 2245.3458,-518.7757"/>
<text text-anchor="middle" x="1451.6061" y="-519.4756" font-family="Arial" font-size="14.00" fill="#000000">(Faint, Summon [Bus: (10,10) (Level: 2 Exp: 0) (Pos: None) (Item: [Chili: [Food Effect (Uses: None): Action: Damage (5, 0) on Enemy (Relative(-1)), Trigger: [Status: BattleFoodEffect, Position: OnSelf, Affected: None, From: None]]])], Phase: 1)</text>
</g>
<!-- 2&#45;&gt;7 -->
<g id="edge8" class="edge">
<title>2-&gt;7</title>
<path fill="none" stroke="#000000" d="M663.12,-355.5648C965.8087,-356.6481 1899.9348,-361.3285 2202.3008,-378.4756 2204.892,-378.6225 2207.5095,-378.7814 2210.1466,-378.9508"/>
<polygon fill="#000000" stroke="#000000" points="2210.1848,-382.4616 2220.401,-379.6546 2210.6641,-375.478 2210.1848,-382.4616"/>
<text text-anchor="middle" x="1451.6061" y="-382.4756" font-family="Arial" font-size="14.00" fill="#000000">(Faint, Summon [Zombie Cricket: (3,3) (Level: 3 Exp: 0) (Pos: None) (Item: None)], Phase: 1)</text>
</g>
<!-- 2&#45;&gt;10 -->
<g id="edge11" class="edge">
<title>2-&gt;10</title>
<path fill="none" stroke="#000000" d="M663.152,-341.0844C675.8258,-339.6248 688.665,-338.3565 700.9114,-337.4756 1002.47,-315.7832 1932.1842,-317.5549 2240.5446,-318.7902"/>
<polygon fill="#000000" stroke="#000000" points="2240.7952,-322.2912 2250.8094,-318.8321 2240.8238,-315.2913 2240.7952,-322.2912"/>
<text text-anchor="middle" x="1451.6061" y="-341.4756" font-family="Arial" font-size="14.00" fill="#000000">(Faint, Summon Default Bee, Phase: 1)</text>
</g>
<!-- 3&#45;&gt;8 -->
<g id="edge9" class="edge">
<title>3-&gt;8</title>
<path fill="none" stroke="#000000" d="M661.5125,-195.9134C962.4524,-198.0625 1899.1886,-205.6333 2202.3008,-218.4756 2215.1855,-219.0215 2228.7324,-219.766 2242.1049,-220.6024"/>
<polygon fill="#000000" stroke="#000000" points="2242.0786,-224.1079 2252.283,-221.2582 2242.5288,-217.1224 2242.0786,-224.1079"/>
<text text-anchor="middle" x="1451.6061" y="-222.4756" font-family="Arial" font-size="14.00" fill="#000000">(Faint, Summon [Ram: (4,4) (Level: 2 Exp: 0) (Pos: None) (Item: None)], Phase: 1)</text>
</g>
<!-- 3&#45;&gt;9 -->
<g id="edge10" class="edge">
<title>3-&gt;9</title>
<path fill="none" stroke="#000000" d="M661.3572,-182.0577C674.614,-180.6002 688.0897,-179.3348 700.9114,-178.4756 1003.0922,-158.2269 1935.4654,-161.8238 2242.1626,-163.6193"/>
<polygon fill="#000000" stroke="#000000" points="2242.3484,-167.1204 2252.369,-163.6798 2242.3899,-160.1205 2242.3484,-167.1204"/>
<text text-anchor="middle" x="1451.6061" y="-182.4756" font-family="Arial" font-size="14.00" fill="#000000">(Faint, Summon [Ram: (4,4) (Level: 2 Exp: 0) (Pos: None) (Item: None)], Phase: 1)</text>
</g>
<!-- 6&#45;&gt;0 -->
<g id="edge14" class="edge">
<title>6-&gt;0</title>
<path fill="none" stroke="#000000" d="M2255.2977,-512.4199C1988.039,-503.162 1146.7394,-471.2896 451.8582,-415.2756 340.8793,-406.3296 309.0752,-421.4869 202.805,-388.2756 176.0231,-379.9058 148.2831,-364.7998 127.3087,-351.8397"/>
<polygon fill="#000000" stroke="#000000" points="129.0812,-348.8196 118.7565,-346.4426 125.3454,-354.7394 129.0812,-348.8196"/>
<text text-anchor="middle" x="567.3848" y="-436.4756" font-family="Arial" font-size="14.00" fill="#000000">(Attack, Damage (0, 10), Phase: 2)</text>
</g>
<!-- 11 -->
<g id="node12" class="node">
<title>11</title>
<path fill="#d3d3d3" stroke="#000000" d="M2938.4777,-533.2756C2938.4777,-533.2756 2782.7589,-533.2756 2782.7589,-533.2756 2776.7589,-533.2756 2770.7589,-527.2756 2770.7589,-521.2756 2770.7589,-521.2756 2770.7589,-509.2756 2770.7589,-509.2756 2770.7589,-503.2756 2776.7589,-497.2756 2782.7589,-497.2756 2782.7589,-497.2756 2938.4777,-497.2756 2938.4777,-497.2756 2944.4777,-497.2756 2950.4777,-503.2756 2950.4777,-509.2756 2950.4777,-509.2756 2950.4777,-521.2756 2950.4777,-521.2756 2950.4777,-527.2756 2944.4777,-533.2756 2938.4777,-533.2756"/>
<text text-anchor="middle" x="2860.6183" y="-511.0756" font-family="Arial" font-size="14.00" fill="#000000">Otter_1 - The Sour Sailors</text>
</g>
<!-- 6&#45;&gt;11 -->
<g id="edge12" class="edge">
<title>6-&gt;11</title>
<path fill="none" stroke="#000000" d="M2426.8758,-515.2756C2518.5941,-515.2756 2663.8656,-515.2756 2760.6835,-515.2756"/>
<polygon fill="#000000" stroke="#000000" points="2760.7759,-518.7757 2770.7759,-515.2756 2760.7758,-511.7757 2760.7759,-518.7757"/>
<text text-anchor="middle" x="2616.4045" y="-519.4756" font-family="Arial" font-size="14.00" fill="#000000">(BattleFoodEffect, Damage (0, 5), Phase: 2)</text>
</g>
</g>
</svg>
